<svg xmlns="http://www.w3.org/2000/svg" width="395" height="88" fill="none"><mask id="a" width="81" height="88" x="0" y="0" maskUnits="userSpaceOnUse" style="mask-type:luminance"><path fill="#fff" d="M0 0h80.4397v87.8385H0V0Z"/></mask><g mask="url(#a)"><path fill="#231F20" fill-rule="evenodd" d="M.0743 87.3281c0-17.4843 13.6827-32.151 31.7759-35.5468v-.6823H.0742V36.6198h31.776v-.6563C13.7113 32.599 0 17.9167 0 .4062h15.9565c0 9.4375 6.6557 17.5001 15.8937 20.4948V.4063h15.8823V20.901C56.9876 17.9063 63.6433 9.8438 63.6433.4063h15.9509c0 17.5104-13.7228 32.1927-31.8617 35.5572v.6563h31.776V51.099h-31.776v.6406c18.1846 3.3594 31.9359 18.0469 31.9359 35.5885H63.7176c0-9.4687-6.7014-17.5521-15.9851-20.5208v20.5208H31.8502V66.849c-9.2094 3.0208-15.8194 11.0677-15.8194 20.4791H.0743Z" clip-rule="evenodd"/></g><path fill="#231F20" d="M117.843.4219h7.993V14.552c0 1.401-.235 2.7239-.715 3.9687-.479 1.2448-1.228 2.3386-2.251 3.2657-1.022.9323-2.096 1.5885-3.222 1.9687-1.559.5261-3.428.7917-5.616.7917-1.268 0-2.645-.0834-4.142-.2448-1.496-.1615-2.742-.4792-3.747-.9636-1.006-.4791-1.926-1.1562-2.76-2.0416-.834-.8854-1.399-1.7969-1.708-2.7344-.497-1.5104-.743-2.8437-.743-4.0104V.4219h7.993v14.4635c0 1.2917.394 2.3021 1.183 3.0261.794.7291 1.885 1.0937 3.285 1.0937 1.388 0 2.473-.3594 3.262-1.0729.788-.7188 1.188-1.7344 1.188-3.0469V.4219ZM131.194.4219h7.49l9.787 13.1094V.4219h7.587v23.7083h-7.587l-9.735-13.0417v13.0417h-7.542V.4219ZM161.736.4219h8.044v23.7083h-8.044V.4219ZM172.997.4219h8.404l5.878 17.0625L193.038.4219h8.153l-9.644 23.7083h-8.712L172.997.4219ZM203.813.4219h21.527v5.0833h-13.483v3.75h12.523v4.8333h-12.523v4.6667h13.894v5.375h-21.938V.4219ZM238.28 10.0052h3.359c.366 0 1.068-.1094 2.114-.323.525-.0989.954-.3437 1.291-.7395.337-.3958.503-.8542.503-1.3646 0-.7656-.269-1.349-.794-1.7552-.526-.4062-1.52-.6094-2.971-.6094h-3.502v4.7917Zm-8.09 14.125V.4219h13.38c2.479 0 4.376.1927 5.69.5781 1.308.3906 2.365 1.1094 3.171 2.1615.8 1.052 1.205 2.328 1.205 3.8385 0 1.3125-.308 2.448-.925 3.401-.617.9532-1.463 1.7292-2.537 2.3178-.691.3802-1.628.6927-2.822.9375.954.2916 1.645.5833 2.085.875.292.1979.72.6145 1.28 1.25.56.6354.937 1.1302 1.126 1.4739l3.896 6.875h-9.084l-4.273-7.25c-.543-.9375-1.023-1.5469-1.446-1.8281-.577-.3646-1.228-.5469-1.954-.5469h-.702v9.625h-8.09ZM256.939 16.3125l7.638-.4323c.16 1.125.497 1.9792 1.005 2.5677.829.9532 2.011 1.4323 3.548 1.4323 1.143 0 2.028-.2448 2.651-.7396.617-.4895.931-1.0573.931-1.7031 0-.6198-.297-1.1667-.885-1.6562-.589-.4844-1.96-.9427-4.114-1.375-3.525-.7188-6.038-1.6823-7.541-2.8802-1.514-1.198-2.268-2.724-2.268-4.5782 0-1.2187.383-2.3698 1.16-3.4583.771-1.0833 1.936-1.9323 3.49-2.552 1.554-.625 3.685-.9324 6.393-.9324 3.32 0 5.856.5625 7.599 1.6875 1.742 1.125 2.782 2.9115 3.113 5.3646l-7.587.4063c-.205-1.0625-.622-1.8334-1.262-2.3178-.64-.4843-1.526-.724-2.657-.724-.925 0-1.628.1824-2.096.5417-.469.3594-.709.8021-.709 1.3178 0 .3802.194.7187.583 1.0208.371.3125 1.268.6042 2.691.875 3.507.6875 6.027 1.3854 7.547 2.0937 1.519.7084 2.628 1.5886 3.319 2.6303.691 1.0468 1.034 2.2187 1.034 3.5156 0 1.5208-.457 2.9271-1.383 4.2135-.919 1.2813-2.205 2.2552-3.862 2.9219-1.656.6615-3.742.9948-6.261.9948-4.422 0-7.484-.7761-9.187-2.3281-1.702-1.5469-2.662-3.5157-2.89-5.9063ZM284.87.4219h8.044v23.7083h-8.044V.4219ZM306.871 5.7969v12.9583h1.953c1.669 0 2.857-.1719 3.56-.5104.702-.3385 1.256-.9323 1.656-1.7813.4-.8437.6-2.2187.6-4.1145 0-2.5157-.445-4.2344-1.337-5.1615-.897-.927-2.376-1.3906-4.439-1.3906h-1.993Zm-8.044-5.375h11.923c2.353 0 4.25.2916 5.701.875 1.446.5781 2.64 1.4166 3.588 2.5052.943 1.0885 1.628 2.3542 2.051 3.802.429 1.4428.64 2.974.64 4.5886 0 2.5365-.314 4.5-.948 5.8958-.635 1.3959-1.509 2.5678-2.628 3.5105-1.126.9427-2.331 1.5677-3.617 1.8802-1.759.4323-3.359.651-4.787.651h-11.923V.4219ZM341.223 15.0885l-2.822-8.526-2.84 8.526h5.662Zm1.703 5.125h-9.073l-1.302 3.9167h-8.204L334.099.4219h8.815l9.724 23.7083h-8.416l-1.296-3.9167ZM363.39 5.7969v12.9583h1.959c1.668 0 2.851-.1719 3.56-.5104.702-.3385 1.256-.9323 1.656-1.7813.394-.8437.594-2.2187.594-4.1145 0-2.5157-.445-4.2344-1.336-5.1615-.892-.927-2.371-1.3906-4.439-1.3906h-1.994Zm-8.044-5.375h11.929c2.348 0 4.25.2916 5.695.875 1.446.5781 2.64 1.4166 3.588 2.5052.943 1.0885 1.628 2.3542 2.057 3.802.423 1.4428.634 2.974.634 4.5886 0 2.5365-.314 4.5-.948 5.8958-.629 1.3959-1.508 2.5678-2.628 3.5105-1.126.9427-2.331 1.5677-3.617 1.8802-1.759.4323-3.353.651-4.781.651h-11.929V.4219ZM99.1042 32.0677H123.51v5.875h-8.186v17.8334h-8.044V37.9427h-8.1758v-5.875ZM127.121 32.0677h21.527v5.0834h-13.483v3.75h12.523v4.8333h-12.523v4.6667h13.894v5.375h-21.938V32.0677ZM170.683 46.0677l7.038 1.9479c-.474 1.8021-1.216 3.3073-2.233 4.5156-1.017 1.2136-2.28 2.125-3.782 2.7396-1.509.6146-3.428.9219-5.753.9219-2.823 0-5.131-.375-6.925-1.125-1.788-.75-3.33-2.0677-4.633-3.9531-1.297-1.8907-1.948-4.3021-1.948-7.25 0-3.9219 1.143-6.9427 3.433-9.0521 2.286-2.1094 5.525-3.1615 9.713-3.1615 3.273 0 5.85.6042 7.724 1.8177 1.874 1.2084 3.262 3.0677 4.176 5.5782l-7.084 1.4375c-.252-.724-.509-1.25-.783-1.5834-.451-.5625-1-.9948-1.651-1.2968-.651-.3021-1.383-.4532-2.188-.4532-1.823 0-3.222.6667-4.194 2.0052-.736.9896-1.102 2.5469-1.102 4.6667 0 2.6302.434 4.4323 1.308 5.4063.874.9739 2.103 1.4635 3.691 1.4635 1.537 0 2.696-.3958 3.479-1.1823.788-.7917 1.36-1.9375 1.714-3.4427ZM181.669 32.0677h7.484l9.792 13.1146V32.0677h7.587v23.7084h-7.587l-9.74-13.0417v13.0417h-7.536V32.0677ZM218.924 43.9583c0 2.3959.486 4.1198 1.462 5.1667.977 1.0469 2.303 1.5677 3.988 1.5677 1.725 0 3.062-.5104 4.011-1.5365.942-1.026 1.417-2.8645 1.417-5.5208 0-2.2344-.492-3.8646-1.48-4.8958-.988-1.0313-2.331-1.5469-4.022-1.5469-1.623 0-2.919.526-3.902 1.5729-.983 1.0469-1.474 2.7761-1.474 5.1927Zm-8.044-.0208c0-3.875 1.183-6.8906 3.548-9.0469 2.371-2.1614 5.667-3.2396 9.889-3.2396 4.331 0 7.667 1.0625 10.015 3.1823 2.342 2.1198 3.514 5.0886 3.514 8.9115 0 2.776-.515 5.0469-1.537 6.8229-1.023 1.776-2.503 3.1562-4.439 4.1458-1.931.9844-4.342 1.4792-7.233 1.4792-2.937 0-5.365-.4271-7.284-1.276-1.925-.8542-3.485-2.2032-4.679-4.0521-1.194-1.8438-1.794-4.1511-1.794-6.9271ZM242.153 32.0677h8.044v17.875h12.523v5.8334h-20.567V32.0677ZM273.421 43.9583c0 2.3959.491 4.1198 1.468 5.1667.971 1.0469 2.302 1.5677 3.982 1.5677 1.725 0 3.062-.5104 4.01-1.5365.943-1.026 1.417-2.8645 1.417-5.5208 0-2.2344-.491-3.8646-1.479-4.8958-.989-1.0313-2.326-1.5469-4.022-1.5469-1.617 0-2.92.526-3.902 1.5729-.983 1.0469-1.474 2.7761-1.474 5.1927Zm-8.044-.0208c0-3.875 1.182-6.8906 3.553-9.0469 2.365-2.1614 5.662-3.2396 9.89-3.2396 4.33 0 7.666 1.0625 10.009 3.1823 2.342 2.1198 3.513 5.0886 3.513 8.9115 0 2.776-.508 5.0469-1.531 6.8229-1.028 1.776-2.508 3.1562-4.439 4.1458-1.937.9844-4.347 1.4792-7.233 1.4792-2.936 0-5.37-.4271-7.289-1.276-1.926-.8542-3.485-2.2032-4.679-4.0521-1.194-1.8438-1.794-4.1511-1.794-6.9271ZM309.721 47.151v-4.9166h12.432v10.1302c-2.382 1.4843-4.485 2.4896-6.313 3.026-1.828.5365-3.999.8021-6.507.8021-3.091 0-5.61-.4792-7.553-1.4427-1.948-.9583-3.456-2.3906-4.53-4.2865-1.069-1.901-1.606-4.0781-1.606-6.5416 0-2.5886.583-4.8438 1.754-6.7605 1.171-1.9114 2.891-3.3645 5.148-4.3593 1.765-.7657 4.136-1.1511 7.118-1.1511 2.874 0 5.028.2396 6.45.7084 1.428.4791 2.611 1.2135 3.554 2.2083.937.9948 1.645 2.2604 2.119 3.7865l-7.769 1.2552c-.32-.8907-.863-1.573-1.623-2.0417-.766-.4688-1.737-.7083-2.919-.7083-1.766 0-3.171.5573-4.217 1.6718-1.051 1.1198-1.571 2.8855-1.571 5.3021 0 2.5677.532 4.4011 1.594 5.5 1.057 1.1042 2.543 1.6511 4.439 1.6511.903 0 1.76-.1198 2.583-.3594.817-.2396 1.754-.6458 2.81-1.224v-2.25h-5.393ZM327.238 32.0677h8.044v23.7084h-8.044V32.0677ZM358.374 46.0677l7.038 1.9479c-.468 1.8021-1.217 3.3073-2.234 4.5156-1.017 1.2136-2.273 2.125-3.782 2.7396-1.508.6146-3.422.9219-5.753.9219-2.822 0-5.13-.375-6.918-1.125-1.788-.75-3.337-2.0677-4.634-3.9531-1.302-1.8907-1.953-4.3021-1.953-7.25 0-3.9219 1.148-6.9427 3.433-9.0521 2.291-2.1094 5.525-3.1615 9.712-3.1615 3.274 0 5.85.6042 7.724 1.8177 1.874 1.2084 3.268 3.0677 4.177 5.5782l-7.085 1.4375c-.245-.724-.508-1.25-.782-1.5834-.446-.5625-1-.9948-1.651-1.2968-.652-.3021-1.377-.4532-2.188-.4532-1.823 0-3.223.6667-4.194 2.0052-.731.9896-1.102 2.5469-1.102 4.6667 0 2.6302.439 4.4323 1.314 5.4063.874.9739 2.102 1.4635 3.684 1.4635 1.537 0 2.697-.3958 3.485-1.1823.783-.7917 1.354-1.9375 1.709-3.4427Z"/><mask id="b" width="30" height="24" x="365" y="32" maskUnits="userSpaceOnUse" style="mask-type:luminance"><path fill="#fff" d="M365.635 32H395v24h-29.365V32Z"/></mask><g mask="url(#b)"><path fill="#231F20" d="m383.591 46.7344-2.828-8.5208-2.839 8.5208h5.667Zm1.697 5.125h-9.067l-1.308 3.9167h-8.204l9.758-23.7084h8.815L395 55.7761h-8.415l-1.297-3.9167Z"/></g><mask id="c" width="28" height="26" x="100" y="62" maskUnits="userSpaceOnUse" style="mask-type:luminance"><path fill="#fff" d="M100.915 62.6667h26.326v25.1718h-26.326V62.6667Z"/></mask><g mask="url(#c)"><path fill="#231F20" d="M100.932 63.7188h7.484l9.793 13.1093V63.7188h7.587v23.7031h-7.587l-9.741-13.0417v13.0417h-7.536V63.7188Z"/></g><mask id="d" width="31" height="26" x="127" y="62" maskUnits="userSpaceOnUse" style="mask-type:luminance"><path fill="#fff" d="M127.241 62.6667h30.713v25.1718h-30.713V62.6667Z"/></mask><g mask="url(#d)"><path fill="#231F20" d="m145.42 78.3854-2.822-8.526-2.84 8.526h5.662Zm1.702 5.1198h-9.066l-1.309 3.9167h-8.203l9.757-23.7031h8.816l9.718 23.7031h-8.416l-1.297-3.9167Z"/></g><mask id="e" width="28" height="26" x="157" y="62" maskUnits="userSpaceOnUse" style="mask-type:luminance"><path fill="#fff" d="M157.954 62.6667h26.326v25.1718h-26.326V62.6667Z"/></mask><g mask="url(#e)"><path fill="#231F20" d="m176.733 77.7187 7.039 1.9427c-.475 1.8073-1.217 3.3125-2.234 4.5209-1.017 1.2083-2.28 2.1198-3.788 2.7343-1.502.6146-3.422.9219-5.747.9219-2.828 0-5.131-.3698-6.925-1.1198-1.788-.75-3.33-2.0677-4.633-3.9583-1.302-1.8854-1.948-4.3021-1.948-7.2448 0-3.9271 1.143-6.9427 3.434-9.0521 2.285-2.1094 5.524-3.1614 9.706-3.1614 3.279 0 5.856.6041 7.724 1.8125 1.88 1.2135 3.268 3.0729 4.182 5.5781l-7.084 1.4427c-.251-.724-.509-1.2552-.783-1.5885-.451-.5625-1.005-.9948-1.651-1.2969-.657-.3021-1.382-.4479-2.188-.4479-1.828 0-3.222.6666-4.193 2-.737.9948-1.103 2.5468-1.103 4.6718 0 2.6302.434 4.4271 1.308 5.4063.874.9739 2.103 1.4583 3.691 1.4583 1.537 0 2.697-.3958 3.479-1.1823.789-.7916 1.36-1.9375 1.714-3.4375Z"/></g><mask id="f" width="11" height="26" x="187" y="62" maskUnits="userSpaceOnUse" style="mask-type:luminance"><path fill="#fff" d="M187.205 62.6667h10.238v25.1718h-10.238V62.6667Z"/></mask><g mask="url(#f)"><path fill="#231F20" d="M187.988 63.7188h8.044v23.7031h-8.044V63.7188Z"/></g><mask id="g" width="29" height="26" x="200" y="62" maskUnits="userSpaceOnUse" style="mask-type:luminance"><path fill="#fff" d="M200.368 62.6667h27.788v25.1718h-27.788V62.6667Z"/></mask><g mask="url(#g)"><path fill="#231F20" d="M208.846 75.6094c0 2.3958.491 4.1145 1.468 5.1614.972 1.0469 2.303 1.5677 3.982 1.5677 1.726 0 3.063-.5104 4.011-1.5364.943-1.0261 1.417-2.8646 1.417-5.5209 0-2.2291-.492-3.8646-1.48-4.8958-.988-1.026-2.331-1.5469-4.022-1.5469-1.617 0-2.919.5261-3.902 1.5729-.983 1.0469-1.474 2.7813-1.474 5.198Zm-8.044-.0209c0-3.875 1.183-6.8958 3.554-9.0521 2.365-2.1562 5.661-3.2343 9.889-3.2343 4.33 0 7.667 1.0573 10.009 3.177 2.343 2.125 3.514 5.0938 3.514 8.9115 0 2.776-.509 5.0521-1.537 6.8281-1.023 1.7709-2.502 3.1511-4.433 4.1407-1.937.9895-4.348 1.4791-7.239 1.4791-2.931 0-5.364-.4219-7.284-1.276-1.925-.8542-3.485-2.2031-4.679-4.0469-1.194-1.8437-1.794-4.1562-1.794-6.9271Z"/></g><mask id="h" width="27" height="26" x="231" y="62" maskUnits="userSpaceOnUse" style="mask-type:luminance"><path fill="#fff" d="M231.081 62.6667h26.326v25.1718h-26.326V62.6667Z"/></mask><g mask="url(#h)"><path fill="#231F20" d="M232.121 63.7188h7.484l9.792 13.1093V63.7188h7.587v23.7031h-7.587l-9.735-13.0417v13.0417h-7.541V63.7188Z"/></g><mask id="i" width="31" height="26" x="258" y="62" maskUnits="userSpaceOnUse" style="mask-type:luminance"><path fill="#fff" d="M258.87 62.6667h29.25v25.1718h-29.25V62.6667Z"/></mask><g mask="url(#i)"><path fill="#231F20" d="m276.614 78.3854-2.828-8.526-2.833 8.526h5.661Zm1.697 5.1198h-9.067l-1.302 3.9167h-8.21l9.758-23.7031h8.815l9.718 23.7031h-8.415l-1.297-3.9167Z"/></g><mask id="j" width="23" height="26" x="289" y="62" maskUnits="userSpaceOnUse" style="mask-type:luminance"><path fill="#fff" d="M289.583 62.6667h21.938v25.1718h-21.938V62.6667Z"/></mask><g mask="url(#j)"><path fill="#231F20" d="M290.6 63.7188h8.044v17.8697h12.523v5.8334H290.6V63.7188Z"/></g></svg>